<svg xmlns="http://www.w3.org/2000/svg" style="display:none">

  <!-- Compass — Non-directive -->
  <symbol id="icon-compass" viewBox="0 0 24 24" fill="none" stroke="currentColor" stroke-width="2" stroke-linecap="round" stroke-linejoin="round">
    <circle cx="12" cy="12" r="10"/>
    <path d="m16.24 7.76-1.804 5.411a2 2 0 0 1-1.265 1.265L7.76 16.24l1.804-5.411a2 2 0 0 1 1.265-1.265z"/>
  </symbol>

  <!-- NotebookPen — Research-grounded -->
  <symbol id="icon-notebook-pen" viewBox="0 0 24 24" fill="none" stroke="currentColor" stroke-width="2" stroke-linecap="round" stroke-linejoin="round">
    <path d="M13.4 2H6a2 2 0 0 0-2 2v16a2 2 0 0 0 2 2h12a2 2 0 0 0 2-2v-7.4"/>
    <path d="M2 6h4"/>
    <path d="M2 10h4"/>
    <path d="M2 14h4"/>
    <path d="M2 18h4"/>
    <path d="M21.378 5.626a1 1 0 1 0-3.004-3.004l-5.01 5.012a2 2 0 0 0-.506.854l-.837 2.87a.5.5 0 0 0 .62.62l2.87-.837a2 2 0 0 0 .854-.506z"/>
  </symbol>

  <!-- Lock — Privacy-first / No accounts -->
  <symbol id="icon-lock" viewBox="0 0 24 24" fill="none" stroke="currentColor" stroke-width="2" stroke-linecap="round" stroke-linejoin="round">
    <circle cx="12" cy="16" r="1"/>
    <rect x="3" y="10" width="18" height="12" rx="2"/>
    <path d="M7 10V7a5 5 0 0 1 10 0v3"/>
  </symbol>

  <!-- HeartHandshake — Harm reduction -->
  <symbol id="icon-heart-handshake" viewBox="0 0 24 24" fill="none" stroke="currentColor" stroke-width="2" stroke-linecap="round" stroke-linejoin="round">
    <path d="M19.414 14.414C21 12.828 22 11.5 22 9.5a5.5 5.5 0 0 0-9.591-3.676.6.6 0 0 1-.818.001A5.5 5.5 0 0 0 2 9.5c0 2.3 1.5 4 3 5.5l5.535 5.362a2 2 0 0 0 2.879.052 2.12 2.12 0 0 0-.004-3 2.124 2.124 0 1 0 3-3 2.124 2.124 0 0 0 3.004 0 2 2 0 0 0 0-2.828l-1.881-1.882a2.41 2.41 0 0 0-3.409 0l-1.71 1.71a2 2 0 0 1-2.828 0 2 2 0 0 1 0-2.828l2.823-2.762"/>
  </symbol>

  <!-- Waves — Open source -->
  <symbol id="icon-waves" viewBox="0 0 24 24" fill="none" stroke="currentColor" stroke-width="2" stroke-linecap="round" stroke-linejoin="round">
    <path d="M2 6c.6.5 1.2 1 2.5 1C7 7 7 5 9.5 5c2.6 0 2.4 2 5 2 2.5 0 2.5-2 5-2 1.3 0 1.9.5 2.5 1"/>
    <path d="M2 12c.6.5 1.2 1 2.5 1 2.5 0 2.5-2 5-2 2.6 0 2.4 2 5 2 2.5 0 2.5-2 5-2 1.3 0 1.9.5 2.5 1"/>
    <path d="M2 18c.6.5 1.2 1 2.5 1 2.5 0 2.5-2 5-2 2.6 0 2.4 2 5 2 2.5 0 2.5-2 5-2 1.3 0 1.9.5 2.5 1"/>
  </symbol>

  <!-- CircleSkip (circle minus) — Zero telemetry -->
  <symbol id="icon-circle-skip" viewBox="0 0 24 24" fill="none" stroke="currentColor" stroke-width="2" stroke-linecap="round" stroke-linejoin="round">
    <circle cx="12" cy="12" r="10"/>
    <path d="M8 12h8"/>
  </symbol>

  <!-- Sparkle — Accessible -->
  <symbol id="icon-sparkle" viewBox="0 0 24 24" fill="none" stroke="currentColor" stroke-width="2" stroke-linecap="round" stroke-linejoin="round">
    <path d="M11.017 2.814a1 1 0 0 1 1.966 0l1.051 5.558a2 2 0 0 0 1.594 1.594l5.558 1.051a1 1 0 0 1 0 1.966l-5.558 1.051a2 2 0 0 0-1.594 1.594l-1.051 5.558a1 1 0 0 1-1.966 0l-1.051-5.558a2 2 0 0 0-1.594-1.594l-5.558-1.051a1 1 0 0 1 0-1.966l5.558-1.051a2 2 0 0 0 1.594-1.594z"/>
  </symbol>

  <!-- Boat — Works offline -->
  <symbol id="icon-boat" viewBox="0 0 24 24" fill="none" stroke="currentColor" stroke-width="2" stroke-linecap="round" stroke-linejoin="round">
    <path d="M10 2v15"/>
    <path d="M7 22a4 4 0 0 1-4-4 1 1 0 0 1 1-1h16a1 1 0 0 1 1 1 4 4 0 0 1-4 4z"/>
    <path d="M9.159 2.46a1 1 0 0 1 1.521-.193l9.977 8.98A1 1 0 0 1 20 13H4a1 1 0 0 1-.824-1.567z"/>
  </symbol>

  <!-- Snail — Altered-state aware -->
  <symbol id="icon-snail" viewBox="0 0 24 24" fill="none" stroke="currentColor" stroke-width="2" stroke-linecap="round" stroke-linejoin="round">
    <path d="M2 13a6 6 0 1 0 12 0 4 4 0 1 0-8 0 2 2 0 0 0 4 0"/>
    <circle cx="10" cy="13" r="8"/>
    <path d="M2 21h12c4.4 0 8-3.6 8-8V7a2 2 0 1 0-4 0v6"/>
    <path d="M18 3 19.1 5.2"/>
    <path d="M22 3 20.9 5.2"/>
  </symbol>

  <!-- Eye Closed -->
  <symbol id="icon-eye-closed" viewBox="0 0 24 24" fill="none" stroke="currentColor" stroke-width="2" stroke-linecap="round" stroke-linejoin="round">
    <path d="m15 18-.722-3.25"/>
    <path d="M2 8a10.645 10.645 0 0 0 20 0"/>
    <path d="m20 15-1.726-2.05"/>
    <path d="m4 15 1.726-2.05"/>
    <path d="m9 18 .722-3.25"/>
  </symbol>

  <!-- Book Open -->
  <symbol id="icon-book-open" viewBox="0 0 24 24" fill="none" stroke="currentColor" stroke-width="2" stroke-linecap="round" stroke-linejoin="round">
    <path d="M12 7v14"/>
    <path d="M16 12h2"/>
    <path d="M16 8h2"/>
    <path d="M3 18a1 1 0 0 1-1-1V4a1 1 0 0 1 1-1h5a4 4 0 0 1 4 4 4 4 0 0 1 4-4h5a1 1 0 0 1 1 1v13a1 1 0 0 1-1 1h-6a3 3 0 0 0-3 3 3 3 0 0 0-3-3z"/>
    <path d="M6 12h2"/>
    <path d="M6 8h2"/>
  </symbol>

  <!-- Pyramid -->
  <symbol id="icon-pyramid" viewBox="0 0 24 24" fill="none" stroke="currentColor" stroke-width="2" stroke-linecap="round" stroke-linejoin="round">
    <path d="M2.5 16.88a1 1 0 0 1-.32-1.43l9-13.02a1 1 0 0 1 1.64 0l9 13.01a1 1 0 0 1-.32 1.44l-8.51 4.86a2 2 0 0 1-1.98 0Z"/>
    <path d="M12 2v20"/>
  </symbol>

  <!-- Ship Wheel -->
  <symbol id="icon-wheel" viewBox="0 0 24 24" fill="none" stroke="currentColor" stroke-width="2" stroke-linecap="round" stroke-linejoin="round">
    <circle cx="12" cy="12" r="8"/>
    <path d="M12 2v7.5"/>
    <path d="m19 5-5.23 5.23"/>
    <path d="M22 12h-7.5"/>
    <path d="m19 19-5.23-5.23"/>
    <path d="M12 14.5V22"/>
    <path d="M10.23 13.77 5 19"/>
    <path d="M9.5 12H2"/>
    <path d="M10.23 10.23 5 5"/>
    <circle cx="12" cy="12" r="2.5"/>
  </symbol>

  <!-- Leaf -->
  <symbol id="icon-leaf" viewBox="0 0 24 24" fill="none" stroke="currentColor" stroke-width="2" stroke-linecap="round" stroke-linejoin="round">
    <path d="M11 20A7 7 0 0 1 9.8 6.1C15.5 5 17 4.48 19 2c1 2 2 4.18 2 8 0 5.5-4.78 10-10 10Z"/>
    <path d="M2 21c0-3 1.85-5.36 5.08-6C9.5 14.52 12 13 13 12"/>
  </symbol>

  <!-- External Link (arrow up-right) -->
  <symbol id="icon-external" viewBox="0 0 24 24" fill="none" stroke="currentColor" stroke-width="2" stroke-linecap="round" stroke-linejoin="round">
    <path d="M15 3h6v6"/>
    <path d="M10 14 21 3"/>
    <path d="M18 13v6a2 2 0 0 1-2 2H5a2 2 0 0 1-2-2V8a2 2 0 0 1 2-2h6"/>
  </symbol>

</svg>

